# Blender v2.92.0 OBJ File: 'DamageBlock.blend'
# www.blender.org
mtllib DamageBlock.mtl
o 円錐
v 0.000000 2.420247 0.000000
v 0.000000 -2.346640 0.000000
v 0.000000 0.036804 -2.095366
v 0.408786 0.036804 -2.055104
v 0.801862 0.036804 -1.935866
v 1.164123 0.036804 -1.742233
v 1.481647 0.036804 -1.481647
v 1.742233 0.036804 -1.164123
v 1.935866 0.036804 -0.801862
v 2.055104 0.036804 -0.408786
v 2.095366 0.036804 -0.000000
v 2.055104 0.036804 0.408785
v 1.935866 0.036804 0.801861
v 1.742233 0.036804 1.164123
v 1.481647 0.036804 1.481647
v 1.164123 0.036804 1.742233
v 0.801861 0.036804 1.935866
v 0.408785 0.036804 2.055104
v -0.000001 0.036804 2.095366
v -0.408786 0.036804 2.055104
v -0.801863 0.036804 1.935865
v -1.164124 0.036804 1.742232
v -1.481648 0.036804 1.481646
v -1.742234 0.036804 1.164122
v -1.935866 0.036804 0.801860
v -2.055104 0.036804 0.408784
v -2.095366 0.036804 -0.000002
v -2.055104 0.036804 -0.408788
v -1.935865 0.036804 -0.801864
v -1.742232 0.036804 -1.164125
v -1.481645 0.036804 -1.481649
v -1.164121 0.036804 -1.742235
v -0.801859 0.036804 -1.935867
v -0.408782 0.036804 -2.055104
vt 0.250000 0.370000
vt 0.250000 0.250000
vt 0.273411 0.367694
vt 0.295922 0.360866
vt 0.316668 0.349776
vt 0.334853 0.334853
vt 0.349776 0.316668
vt 0.360866 0.295922
vt 0.367694 0.273411
vt 0.370000 0.250000
vt 0.367694 0.226589
vt 0.360866 0.204078
vt 0.349776 0.183332
vt 0.334853 0.165147
vt 0.316668 0.150224
vt 0.295922 0.139134
vt 0.273411 0.132306
vt 0.250000 0.130000
vt 0.226589 0.132306
vt 0.204078 0.139134
vt 0.183332 0.150224
vt 0.165147 0.165147
vt 0.150224 0.183332
vt 0.139134 0.204078
vt 0.132306 0.226589
vt 0.130000 0.250000
vt 0.132306 0.273411
vt 0.139135 0.295922
vt 0.150224 0.316669
vt 0.165147 0.334853
vt 0.183332 0.349776
vt 0.204078 0.360866
vt 0.226589 0.367694
vt 0.250000 0.250000
vn 0.0738 0.6585 -0.7490
vn 0.2185 0.6585 -0.7202
vn 0.3548 0.6585 -0.6637
vn 0.4775 0.6585 -0.5818
vn 0.5818 0.6585 -0.4775
vn 0.6637 0.6585 -0.3548
vn 0.7202 0.6585 -0.2185
vn 0.7490 0.6585 -0.0738
vn 0.7490 0.6585 0.0738
vn 0.7202 0.6585 0.2185
vn 0.6637 0.6585 0.3548
vn 0.5818 0.6585 0.4775
vn 0.4775 0.6585 0.5818
vn 0.3548 0.6585 0.6637
vn 0.2185 0.6585 0.7202
vn 0.0738 0.6585 0.7490
vn -0.0738 0.6585 0.7490
vn -0.2185 0.6585 0.7202
vn -0.3548 0.6585 0.6637
vn -0.4775 0.6585 0.5818
vn -0.5818 0.6585 0.4775
vn -0.6637 0.6585 0.3548
vn -0.7202 0.6585 0.2185
vn -0.7490 0.6585 0.0738
vn -0.7490 0.6585 -0.0738
vn -0.7202 0.6585 -0.2185
vn -0.6637 0.6585 -0.3548
vn -0.5818 0.6585 -0.4775
vn -0.4775 0.6585 -0.5818
vn -0.3548 0.6585 -0.6637
vn -0.2185 0.6585 -0.7202
vn -0.0738 0.6585 -0.7490
vn 0.0738 -0.6585 -0.7490
vn 0.2185 -0.6585 -0.7202
vn 0.3548 -0.6585 -0.6637
vn 0.4775 -0.6585 -0.5818
vn 0.5818 -0.6585 -0.4775
vn 0.6637 -0.6585 -0.3548
vn 0.7202 -0.6585 -0.2185
vn 0.7490 -0.6585 -0.0738
vn 0.7490 -0.6585 0.0738
vn 0.7202 -0.6585 0.2185
vn 0.6637 -0.6585 0.3548
vn 0.5818 -0.6585 0.4775
vn 0.4775 -0.6585 0.5818
vn 0.3548 -0.6585 0.6637
vn 0.2185 -0.6585 0.7202
vn 0.0738 -0.6585 0.7490
vn -0.0738 -0.6585 0.7490
vn -0.2185 -0.6585 0.7202
vn -0.3548 -0.6585 0.6637
vn -0.4775 -0.6585 0.5818
vn -0.5818 -0.6585 0.4775
vn -0.6637 -0.6585 0.3548
vn -0.7202 -0.6585 0.2185
vn -0.7490 -0.6585 0.0738
vn -0.7490 -0.6585 -0.0738
vn -0.7202 -0.6585 -0.2185
vn -0.6637 -0.6585 -0.3548
vn -0.5818 -0.6585 -0.4775
vn -0.4775 -0.6585 -0.5818
vn -0.3548 -0.6585 -0.6637
vn -0.2185 -0.6585 -0.7202
vn -0.0738 -0.6585 -0.7490
usemtl マテリアル
s off
f 3/1/1 1/2/1 4/3/1
f 4/3/2 1/2/2 5/4/2
f 5/4/3 1/2/3 6/5/3
f 6/5/4 1/2/4 7/6/4
f 7/6/5 1/2/5 8/7/5
f 8/7/6 1/2/6 9/8/6
f 9/8/7 1/2/7 10/9/7
f 10/9/8 1/2/8 11/10/8
f 11/10/9 1/2/9 12/11/9
f 12/11/10 1/2/10 13/12/10
f 13/12/11 1/2/11 14/13/11
f 14/13/12 1/2/12 15/14/12
f 15/14/13 1/2/13 16/15/13
f 16/15/14 1/2/14 17/16/14
f 17/16/15 1/2/15 18/17/15
f 18/17/16 1/2/16 19/18/16
f 19/18/17 1/2/17 20/19/17
f 20/19/18 1/2/18 21/20/18
f 21/20/19 1/2/19 22/21/19
f 22/21/20 1/2/20 23/22/20
f 23/22/21 1/2/21 24/23/21
f 24/23/22 1/2/22 25/24/22
f 25/24/23 1/2/23 26/25/23
f 26/25/24 1/2/24 27/26/24
f 27/26/25 1/2/25 28/27/25
f 28/27/26 1/2/26 29/28/26
f 29/28/27 1/2/27 30/29/27
f 30/29/28 1/2/28 31/30/28
f 31/30/29 1/2/29 32/31/29
f 32/31/30 1/2/30 33/32/30
f 33/32/31 1/2/31 34/33/31
f 34/33/32 1/2/32 3/1/32
f 3/1/33 4/3/33 2/34/33
f 4/3/34 5/4/34 2/34/34
f 5/4/35 6/5/35 2/34/35
f 6/5/36 7/6/36 2/34/36
f 7/6/37 8/7/37 2/34/37
f 8/7/38 9/8/38 2/34/38
f 9/8/39 10/9/39 2/34/39
f 10/9/40 11/10/40 2/34/40
f 11/10/41 12/11/41 2/34/41
f 12/11/42 13/12/42 2/34/42
f 13/12/43 14/13/43 2/34/43
f 14/13/44 15/14/44 2/34/44
f 15/14/45 16/15/45 2/34/45
f 16/15/46 17/16/46 2/34/46
f 17/16/47 18/17/47 2/34/47
f 18/17/48 19/18/48 2/34/48
f 19/18/49 20/19/49 2/34/49
f 20/19/50 21/20/50 2/34/50
f 21/20/51 22/21/51 2/34/51
f 22/21/52 23/22/52 2/34/52
f 23/22/53 24/23/53 2/34/53
f 24/23/54 25/24/54 2/34/54
f 25/24/55 26/25/55 2/34/55
f 26/25/56 27/26/56 2/34/56
f 27/26/57 28/27/57 2/34/57
f 28/27/58 29/28/58 2/34/58
f 29/28/59 30/29/59 2/34/59
f 30/29/60 31/30/60 2/34/60
f 31/30/61 32/31/61 2/34/61
f 32/31/62 33/32/62 2/34/62
f 33/32/63 34/33/63 2/34/63
f 34/33/64 3/1/64 2/34/64
o 立方体_立方体.002
v -0.281094 -1.375427 1.438295
v -0.281094 1.346018 1.438295
v -0.281094 -1.375427 -1.438295
v -0.281094 1.346018 -1.438295
v 0.281094 -1.375427 1.438295
v 0.281094 1.346018 1.438295
v 0.281094 -1.375427 -1.438295
v 0.281094 1.346018 -1.438295
v 1.430798 -1.384362 0.313007
v 1.430798 1.354953 0.313007
v -1.438671 -1.384362 0.274560
v -1.438671 1.354953 0.274560
v 1.438671 -1.384362 -0.274560
v 1.438671 1.354953 -0.274560
v -1.430798 -1.384362 -0.313007
v -1.430798 1.354953 -0.313007
vt 0.625000 0.000000
vt 0.375000 0.250000
vt 0.375000 0.000000
vt 0.625000 0.250000
vt 0.375000 0.500000
vt 0.625000 0.500000
vt 0.375000 0.750000
vt 0.625000 0.750000
vt 0.375000 1.000000
vt 0.125000 0.750000
vt 0.125000 0.500000
vt 0.875000 0.500000
vt 0.625000 0.000000
vt 0.375000 0.250000
vt 0.375000 0.000000
vt 0.625000 0.250000
vt 0.375000 0.500000
vt 0.625000 0.500000
vt 0.375000 0.750000
vt 0.625000 0.750000
vt 0.375000 1.000000
vt 0.125000 0.750000
vt 0.125000 0.500000
vt 0.875000 0.750000
vt 0.625000 1.000000
vt 0.875000 0.750000
vt 0.625000 1.000000
vt 0.875000 0.500000
vn -1.0000 0.0000 0.0000
vn 0.0000 0.0000 -1.0000
vn 1.0000 0.0000 0.0000
vn 0.0000 0.0000 1.0000
vn 0.0000 -1.0000 0.0000
vn 0.0000 1.0000 0.0000
vn -0.0134 0.0000 0.9999
vn -0.9999 0.0000 -0.0134
vn 0.0134 0.0000 -0.9999
vn 0.9999 0.0000 0.0134
usemtl Material
s off
f 36/35/65 37/36/65 35/37/65
f 38/38/66 41/39/66 37/36/66
f 42/40/67 39/41/67 41/39/67
f 40/42/68 35/43/68 39/41/68
f 41/39/69 35/44/69 37/45/69
f 38/46/70 40/42/70 42/40/70
f 44/47/71 45/48/71 43/49/71
f 46/50/72 49/51/72 45/48/72
f 50/52/73 47/53/73 49/51/73
f 48/54/74 43/55/74 47/53/74
f 49/51/69 43/56/69 45/57/69
f 50/52/70 44/58/70 48/54/70
f 36/35/65 38/38/65 37/36/65
f 38/38/66 42/40/66 41/39/66
f 42/40/67 40/42/67 39/41/67
f 40/42/68 36/59/68 35/43/68
f 41/39/69 39/41/69 35/44/69
f 38/46/70 36/60/70 40/42/70
f 44/47/71 46/50/71 45/48/71
f 46/50/72 50/52/72 49/51/72
f 50/52/73 48/54/73 47/53/73
f 48/54/74 44/61/74 43/55/74
f 49/51/69 47/53/69 43/56/69
f 50/52/70 46/62/70 44/58/70
