# Blender v2.92.0 OBJ File: 'Goal.blend'
# www.blender.org
mtllib Goal.mtl
o 円柱
v 0.000000 -0.422518 0.959824
v 0.000000 4.801990 0.959824
v 0.010797 -0.422518 0.960887
v 0.010797 4.801990 0.960887
v 0.021179 -0.422518 0.964036
v 0.021179 4.801990 0.964036
v 0.030747 -0.422518 0.969151
v 0.030747 4.801990 0.969151
v 0.039133 -0.422518 0.976033
v 0.039133 4.801990 0.976033
v 0.046016 -0.422518 0.984420
v 0.046016 4.801990 0.984420
v 0.051130 -0.422518 0.993988
v 0.051130 4.801990 0.993988
v 0.054279 -0.422518 1.004369
v 0.054279 4.801990 1.004369
v 0.055342 -0.422518 1.015166
v 0.055342 4.801990 1.015166
v 0.054279 -0.422518 1.025963
v 0.054279 4.801990 1.025963
v 0.051130 -0.422518 1.036345
v 0.051130 4.801990 1.036345
v 0.046016 -0.422518 1.045913
v 0.046016 4.801990 1.045913
v 0.039133 -0.422518 1.054299
v 0.039133 4.801990 1.054299
v 0.030747 -0.422518 1.061182
v 0.030747 4.801990 1.061182
v 0.021179 -0.422518 1.066296
v 0.021179 4.801990 1.066296
v 0.010797 -0.422518 1.069445
v 0.010797 4.801990 1.069445
v -0.000000 -0.422518 1.070509
v -0.000000 4.801990 1.070509
v -0.010797 -0.422518 1.069445
v -0.010797 4.801990 1.069445
v -0.021179 -0.422518 1.066296
v -0.021179 4.801990 1.066296
v -0.030747 -0.422518 1.061182
v -0.030747 4.801990 1.061182
v -0.039133 -0.422518 1.054299
v -0.039133 4.801990 1.054299
v -0.046016 -0.422518 1.045913
v -0.046016 4.801990 1.045913
v -0.051130 -0.422518 1.036345
v -0.051130 4.801990 1.036345
v -0.054279 -0.422518 1.025963
v -0.054279 4.801990 1.025963
v -0.055342 -0.422518 1.015166
v -0.055342 4.801990 1.015166
v -0.054279 -0.422518 1.004369
v -0.054279 4.801990 1.004369
v -0.051130 -0.422518 0.993988
v -0.051130 4.801990 0.993988
v -0.046016 -0.422518 0.984420
v -0.046016 4.801990 0.984420
v -0.039133 -0.422518 0.976033
v -0.039133 4.801990 0.976033
v -0.030747 -0.422518 0.969151
v -0.030747 4.801990 0.969151
v -0.021179 -0.422518 0.964036
v -0.021179 4.801990 0.964036
v -0.010797 -0.422518 0.960887
v -0.010797 4.801990 0.960887
vt 1.000000 1.000000
vt 0.968750 0.500000
vt 1.000000 0.500000
vt 0.968750 1.000000
vt 0.937500 0.500000
vt 0.937500 1.000000
vt 0.906250 0.500000
vt 0.906250 1.000000
vt 0.875000 0.500000
vt 0.875000 1.000000
vt 0.843750 0.500000
vt 0.843750 1.000000
vt 0.812500 0.500000
vt 0.812500 1.000000
vt 0.781250 0.500000
vt 0.781250 1.000000
vt 0.750000 0.500000
vt 0.750000 1.000000
vt 0.718750 0.500000
vt 0.718750 1.000000
vt 0.687500 0.500000
vt 0.687500 1.000000
vt 0.656250 0.500000
vt 0.656250 1.000000
vt 0.625000 0.500000
vt 0.625000 1.000000
vt 0.593750 0.500000
vt 0.593750 1.000000
vt 0.562500 0.500000
vt 0.562500 1.000000
vt 0.531250 0.500000
vt 0.531250 1.000000
vt 0.500000 0.500000
vt 0.500000 1.000000
vt 0.468750 0.500000
vt 0.468750 1.000000
vt 0.437500 0.500000
vt 0.437500 1.000000
vt 0.406250 0.500000
vt 0.406250 1.000000
vt 0.375000 0.500000
vt 0.375000 1.000000
vt 0.343750 0.500000
vt 0.343750 1.000000
vt 0.312500 0.500000
vt 0.312500 1.000000
vt 0.281250 0.500000
vt 0.281250 1.000000
vt 0.250000 0.500000
vt 0.250000 1.000000
vt 0.218750 0.500000
vt 0.218750 1.000000
vt 0.187500 0.500000
vt 0.187500 1.000000
vt 0.156250 0.500000
vt 0.156250 1.000000
vt 0.125000 0.500000
vt 0.125000 1.000000
vt 0.093750 0.500000
vt 0.093750 1.000000
vt 0.062500 0.500000
vt 0.028269 0.341844
vt 0.158156 0.028269
vt 0.471731 0.158156
vt 0.062500 1.000000
vt 0.031250 0.500000
vt 0.031250 1.000000
vt 0.000000 0.500000
vt 0.985388 0.296822
vt 0.796822 0.014612
vt 0.514611 0.203179
vt 0.341844 0.471731
vt 0.296822 0.485388
vt 0.250000 0.490000
vt 0.203179 0.485389
vt 0.158156 0.471731
vt 0.116663 0.449553
vt 0.080295 0.419706
vt 0.050447 0.383337
vt 0.014612 0.296822
vt 0.010000 0.250000
vt 0.014611 0.203179
vt 0.028269 0.158156
vt 0.050447 0.116663
vt 0.080294 0.080294
vt 0.116663 0.050447
vt 0.203178 0.014612
vt 0.250000 0.010000
vt 0.296822 0.014612
vt 0.341844 0.028269
vt 0.383337 0.050447
vt 0.419706 0.080294
vt 0.449553 0.116663
vt 0.485388 0.203178
vt 0.490000 0.250000
vt 0.485388 0.296822
vt 0.471731 0.341844
vt 0.449553 0.383337
vt 0.419706 0.419706
vt 0.383337 0.449553
vt 0.000000 1.000000
vt 0.703179 0.485389
vt 0.750000 0.490000
vt 0.796822 0.485388
vt 0.841844 0.471731
vt 0.883337 0.449553
vt 0.919706 0.419706
vt 0.949553 0.383337
vt 0.971731 0.341844
vt 0.990000 0.250000
vt 0.985388 0.203178
vt 0.971731 0.158156
vt 0.949553 0.116663
vt 0.919706 0.080294
vt 0.883337 0.050447
vt 0.841844 0.028269
vt 0.750000 0.010000
vt 0.703178 0.014612
vt 0.658156 0.028269
vt 0.616663 0.050447
vt 0.580294 0.080294
vt 0.550447 0.116663
vt 0.528269 0.158156
vt 0.510000 0.250000
vt 0.514612 0.296822
vt 0.528269 0.341844
vt 0.550447 0.383337
vt 0.580295 0.419706
vt 0.616663 0.449553
vt 0.658156 0.471731
vn 0.0980 0.0000 -0.9952
vn 0.2903 0.0000 -0.9569
vn 0.4714 0.0000 -0.8819
vn 0.6344 0.0000 -0.7730
vn 0.7730 0.0000 -0.6344
vn 0.8819 0.0000 -0.4714
vn 0.9569 0.0000 -0.2903
vn 0.9952 0.0000 -0.0980
vn 0.9952 0.0000 0.0980
vn 0.9569 0.0000 0.2903
vn 0.8819 0.0000 0.4714
vn 0.7730 0.0000 0.6344
vn 0.6344 0.0000 0.7730
vn 0.4714 0.0000 0.8819
vn 0.2903 0.0000 0.9569
vn 0.0980 0.0000 0.9952
vn -0.0980 0.0000 0.9952
vn -0.2903 0.0000 0.9569
vn -0.4714 0.0000 0.8819
vn -0.6344 0.0000 0.7730
vn -0.7730 0.0000 0.6344
vn -0.8819 0.0000 0.4714
vn -0.9569 0.0000 0.2903
vn -0.9952 0.0000 0.0980
vn -0.9952 0.0000 -0.0980
vn -0.9569 0.0000 -0.2903
vn -0.8819 0.0000 -0.4714
vn -0.7730 0.0000 -0.6344
vn -0.6344 0.0000 -0.7730
vn -0.4714 0.0000 -0.8819
vn 0.0000 1.0000 -0.0000
vn -0.2903 0.0000 -0.9569
vn -0.0980 0.0000 -0.9952
vn 0.0000 -1.0000 0.0000
vn 0.0000 1.0000 -0.0003
vn 0.0000 1.0000 -0.0002
vn 0.0000 1.0000 -0.0001
vn 0.0000 1.0000 -0.0006
vn 0.0000 1.0000 0.0003
vn 0.0000 1.0000 0.0001
usemtl マテリアル.001
s off
f 2/1/1 3/2/1 1/3/1
f 4/4/2 5/5/2 3/2/2
f 6/6/3 7/7/3 5/5/3
f 8/8/4 9/9/4 7/7/4
f 10/10/5 11/11/5 9/9/5
f 12/12/6 13/13/6 11/11/6
f 14/14/7 15/15/7 13/13/7
f 16/16/8 17/17/8 15/15/8
f 18/18/9 19/19/9 17/17/9
f 20/20/10 21/21/10 19/19/10
f 22/22/11 23/23/11 21/21/11
f 24/24/12 25/25/12 23/23/12
f 26/26/13 27/27/13 25/25/13
f 28/28/14 29/29/14 27/27/14
f 30/30/15 31/31/15 29/29/15
f 32/32/16 33/33/16 31/31/16
f 34/34/17 35/35/17 33/33/17
f 36/36/18 37/37/18 35/35/18
f 38/38/19 39/39/19 37/37/19
f 40/40/20 41/41/20 39/39/20
f 42/42/21 43/43/21 41/41/21
f 44/44/22 45/45/22 43/43/22
f 46/46/23 47/47/23 45/45/23
f 48/48/24 49/49/24 47/47/24
f 50/50/25 51/51/25 49/49/25
f 52/52/26 53/53/26 51/51/26
f 54/54/27 55/55/27 53/53/27
f 56/56/28 57/57/28 55/55/28
f 58/58/29 59/59/29 57/57/29
f 60/60/30 61/61/30 59/59/30
f 54/62/31 38/63/31 22/64/31
f 62/65/32 63/66/32 61/61/32
f 64/67/33 1/68/33 63/66/33
f 15/69/34 31/70/34 47/71/34
f 2/1/1 4/4/1 3/2/1
f 4/4/2 6/6/2 5/5/2
f 6/6/3 8/8/3 7/7/3
f 8/8/4 10/10/4 9/9/4
f 10/10/5 12/12/5 11/11/5
f 12/12/6 14/14/6 13/13/6
f 14/14/7 16/16/7 15/15/7
f 16/16/8 18/18/8 17/17/8
f 18/18/9 20/20/9 19/19/9
f 20/20/10 22/22/10 21/21/10
f 22/22/11 24/24/11 23/23/11
f 24/24/12 26/26/12 25/25/12
f 26/26/13 28/28/13 27/27/13
f 28/28/14 30/30/14 29/29/14
f 30/30/15 32/32/15 31/31/15
f 32/32/16 34/34/16 33/33/16
f 34/34/17 36/36/17 35/35/17
f 36/36/18 38/38/18 37/37/18
f 38/38/19 40/40/19 39/39/19
f 40/40/20 42/42/20 41/41/20
f 42/42/21 44/44/21 43/43/21
f 44/44/22 46/46/22 45/45/22
f 46/46/23 48/48/23 47/47/23
f 48/48/24 50/50/24 49/49/24
f 50/50/25 52/52/25 51/51/25
f 52/52/26 54/54/26 53/53/26
f 54/54/27 56/56/27 55/55/27
f 56/56/28 58/58/28 57/57/28
f 58/58/29 60/60/29 59/59/29
f 60/60/30 62/65/30 61/61/30
f 6/72/31 4/73/31 2/74/31
f 2/74/31 64/75/31 6/72/31
f 64/75/31 62/76/31 6/72/31
f 62/76/35 60/77/35 58/78/35
f 58/78/36 56/79/36 54/62/36
f 54/62/37 52/80/37 50/81/37
f 50/81/31 48/82/31 54/62/31
f 48/82/31 46/83/31 54/62/31
f 46/83/31 44/84/31 38/63/31
f 44/84/31 42/85/31 38/63/31
f 42/85/35 40/86/35 38/63/35
f 38/63/38 36/87/38 34/88/38
f 34/88/39 32/89/39 30/90/39
f 30/90/31 28/91/31 26/92/31
f 26/92/36 24/93/36 22/64/36
f 22/64/31 20/94/31 18/95/31
f 18/95/31 16/96/31 22/64/31
f 16/96/31 14/97/31 22/64/31
f 14/97/39 12/98/39 10/99/39
f 10/99/31 8/100/31 6/72/31
f 62/76/31 58/78/31 6/72/31
f 58/78/37 54/62/37 6/72/37
f 38/63/31 34/88/31 22/64/31
f 34/88/37 30/90/37 22/64/37
f 30/90/40 26/92/40 22/64/40
f 14/97/31 10/99/31 22/64/31
f 10/99/31 6/72/31 22/64/31
f 54/62/31 46/83/31 38/63/31
f 6/72/31 54/62/31 22/64/31
f 62/65/32 64/67/32 63/66/32
f 64/67/33 2/101/33 1/68/33
f 63/102/34 1/103/34 3/104/34
f 3/104/34 5/105/34 7/106/34
f 7/106/34 9/107/34 11/108/34
f 11/108/34 13/109/34 7/106/34
f 13/109/34 15/69/34 7/106/34
f 15/69/34 17/110/34 19/111/34
f 19/111/34 21/112/34 15/69/34
f 21/112/34 23/113/34 15/69/34
f 23/113/34 25/114/34 31/70/34
f 25/114/34 27/115/34 31/70/34
f 27/115/34 29/116/34 31/70/34
f 31/70/34 33/117/34 35/118/34
f 35/118/34 37/119/34 39/120/34
f 39/120/34 41/121/34 43/122/34
f 43/122/34 45/123/34 47/71/34
f 47/71/34 49/124/34 51/125/34
f 51/125/34 53/126/34 55/127/34
f 55/127/34 57/128/34 63/102/34
f 57/128/34 59/129/34 63/102/34
f 59/129/34 61/130/34 63/102/34
f 63/102/34 3/104/34 7/106/34
f 31/70/34 35/118/34 47/71/34
f 35/118/34 39/120/34 47/71/34
f 39/120/34 43/122/34 47/71/34
f 47/71/34 51/125/34 63/102/34
f 51/125/34 55/127/34 63/102/34
f 63/102/34 7/106/34 15/69/34
f 15/69/34 23/113/34 31/70/34
f 63/102/34 15/69/34 47/71/34
o 円錐
v 0.000000 2.864317 0.939837
v 0.002582 2.883532 0.939761
v 0.005064 2.940437 0.939535
v 0.007352 3.032846 0.939170
v 0.009358 3.157208 0.938677
v 0.011003 3.308743 0.938077
v 0.012226 3.481629 0.937393
v 0.012979 3.669220 0.936650
v 0.013234 3.864309 0.935877
v 0.012979 4.059398 0.935105
v 0.012226 4.246990 0.934362
v 0.011003 4.419875 0.933677
v 0.009358 4.571411 0.933077
v 0.007352 4.695773 0.932585
v 0.005064 4.788182 0.932219
v 0.002582 4.845087 0.931994
v -0.000000 4.864302 0.931918
v -0.002582 4.845087 0.931994
v -0.005064 4.788181 0.932219
v -0.007352 4.695772 0.932585
v -0.009358 4.571410 0.933078
v -0.011003 4.419875 0.933677
v -0.012226 4.246989 0.934362
v -0.012979 4.059397 0.935105
v -0.013234 3.864308 0.935877
v -0.012979 3.669219 0.936650
v -0.012226 3.481628 0.937393
v -0.011003 3.308742 0.938077
v -0.009358 3.157207 0.938677
v -0.007352 3.032845 0.939170
v -0.005064 2.940436 0.939535
v -0.002582 2.883531 0.939761
v 0.000000 3.856390 -1.064107
vt 0.250000 0.490000
vt 0.250000 0.250000
vt 0.296822 0.485388
vt 0.341844 0.471731
vt 0.383337 0.449553
vt 0.419706 0.419706
vt 0.449553 0.383337
vt 0.471731 0.341844
vt 0.485388 0.296822
vt 0.490000 0.250000
vt 0.485388 0.203178
vt 0.471731 0.158156
vt 0.449553 0.116663
vt 0.419706 0.080294
vt 0.383337 0.050447
vt 0.341844 0.028269
vt 0.296822 0.014612
vt 0.250000 0.010000
vt 0.203178 0.014612
vt 0.158156 0.028269
vt 0.116663 0.050447
vt 0.080294 0.080294
vt 0.050447 0.116663
vt 0.028269 0.158156
vt 0.014611 0.203179
vt 0.010000 0.250000
vt 0.014612 0.296822
vt 0.028269 0.341844
vt 0.050447 0.383337
vt 0.080295 0.419706
vt 0.116663 0.449553
vt 0.158156 0.471731
vt 0.985388 0.296822
vt 0.796822 0.014612
vt 0.514611 0.203179
vt 0.203179 0.485389
vt 0.703179 0.485389
vt 0.750000 0.490000
vt 0.796822 0.485388
vt 0.841844 0.471731
vt 0.883337 0.449553
vt 0.919706 0.419706
vt 0.949553 0.383337
vt 0.971731 0.341844
vt 0.990000 0.250000
vt 0.985388 0.203178
vt 0.971731 0.158156
vt 0.949553 0.116663
vt 0.919706 0.080294
vt 0.883337 0.050447
vt 0.841844 0.028269
vt 0.750000 0.010000
vt 0.703178 0.014612
vt 0.658156 0.028269
vt 0.616663 0.050447
vt 0.580294 0.080294
vt 0.550447 0.116663
vt 0.528269 0.158156
vt 0.510000 0.250000
vt 0.514612 0.296822
vt 0.528269 0.341844
vt 0.550447 0.383337
vt 0.580295 0.419706
vt 0.616663 0.449553
vt 0.658156 0.471731
vn 0.9889 -0.1331 -0.0659
vn 0.9988 -0.0437 -0.0225
vn 0.9996 -0.0248 -0.0139
vn 0.9998 -0.0162 -0.0103
vn 0.9999 -0.0109 -0.0085
vn 0.9999 -0.0071 -0.0074
vn 1.0000 -0.0040 -0.0069
vn 1.0000 -0.0013 -0.0066
vn 1.0000 0.0013 -0.0066
vn 1.0000 0.0040 -0.0069
vn 0.9999 0.0070 -0.0075
vn 0.9999 0.0108 -0.0086
vn 0.9998 0.0161 -0.0104
vn 0.9996 0.0247 -0.0141
vn 0.9988 0.0435 -0.0228
vn 0.9889 0.1326 -0.0670
vn -0.9889 0.1326 -0.0670
vn -0.9988 0.0435 -0.0228
vn -0.9996 0.0247 -0.0141
vn -0.9998 0.0161 -0.0104
vn -0.9999 0.0108 -0.0086
vn -0.9999 0.0070 -0.0075
vn -1.0000 0.0040 -0.0069
vn -1.0000 0.0013 -0.0066
vn -1.0000 -0.0013 -0.0066
vn -1.0000 -0.0040 -0.0069
vn -0.9999 -0.0071 -0.0074
vn -0.9999 -0.0109 -0.0085
vn -0.9998 -0.0162 -0.0103
vn -0.9996 -0.0248 -0.0139
vn 0.0000 0.0040 1.0000
vn -0.9988 -0.0437 -0.0225
vn -0.9889 -0.1331 -0.0659
vn -0.0003 0.0040 1.0000
vn 0.0003 0.0040 1.0000
vn -0.0002 0.0040 1.0000
vn 0.0001 0.0040 1.0000
vn -0.0001 0.0040 1.0000
vn 0.0002 0.0040 1.0000
vn 0.0006 0.0040 1.0000
usemtl マテリアル
s off
f 65/131/41 97/132/41 66/133/41
f 66/133/42 97/132/42 67/134/42
f 67/134/43 97/132/43 68/135/43
f 68/135/44 97/132/44 69/136/44
f 69/136/45 97/132/45 70/137/45
f 70/137/46 97/132/46 71/138/46
f 71/138/47 97/132/47 72/139/47
f 72/139/48 97/132/48 73/140/48
f 73/140/49 97/132/49 74/141/49
f 74/141/50 97/132/50 75/142/50
f 75/142/51 97/132/51 76/143/51
f 76/143/52 97/132/52 77/144/52
f 77/144/53 97/132/53 78/145/53
f 78/145/54 97/132/54 79/146/54
f 79/146/55 97/132/55 80/147/55
f 80/147/56 97/132/56 81/148/56
f 81/148/57 97/132/57 82/149/57
f 82/149/58 97/132/58 83/150/58
f 83/150/59 97/132/59 84/151/59
f 84/151/60 97/132/60 85/152/60
f 85/152/61 97/132/61 86/153/61
f 86/153/62 97/132/62 87/154/62
f 87/154/63 97/132/63 88/155/63
f 88/155/64 97/132/64 89/156/64
f 89/156/65 97/132/65 90/157/65
f 90/157/66 97/132/66 91/158/66
f 91/158/67 97/132/67 92/159/67
f 92/159/68 97/132/68 93/160/68
f 93/160/69 97/132/69 94/161/69
f 94/161/70 97/132/70 95/162/70
f 72/163/71 80/164/71 88/165/71
f 95/162/72 97/132/72 96/166/72
f 96/166/73 97/132/73 65/131/73
f 96/167/71 65/168/71 66/169/71
f 66/169/71 67/170/71 68/171/71
f 68/171/74 69/172/74 70/173/74
f 70/173/71 71/174/71 68/171/71
f 71/174/71 72/163/71 68/171/71
f 72/163/75 73/175/75 74/176/75
f 74/176/71 75/177/71 72/163/71
f 75/177/76 76/178/76 72/163/76
f 76/178/77 77/179/77 80/164/77
f 77/179/78 78/180/78 80/164/78
f 78/180/79 79/181/79 80/164/79
f 80/164/71 81/182/71 82/183/71
f 82/183/76 83/184/76 84/185/76
f 84/185/75 85/186/75 86/187/75
f 86/187/80 87/188/80 88/165/80
f 88/165/74 89/189/74 90/190/74
f 90/190/71 91/191/71 92/192/71
f 92/192/71 93/193/71 96/167/71
f 93/193/71 94/194/71 96/167/71
f 94/194/71 95/195/71 96/167/71
f 96/167/71 66/169/71 68/171/71
f 80/164/71 82/183/71 88/165/71
f 82/183/71 84/185/71 88/165/71
f 84/185/78 86/187/78 88/165/78
f 88/165/71 90/190/71 96/167/71
f 90/190/71 92/192/71 96/167/71
f 96/167/71 68/171/71 72/163/71
f 72/163/71 76/178/71 80/164/71
f 96/167/71 72/163/71 88/165/71
