# Blender v2.92.0 OBJ File: 'Load Base.blend'
# www.blender.org
mtllib Load Base.mtl
o Cube
v 21.762480 0.273976 -319.886230
v 23.063812 -1.142065 -319.886230
v 21.762480 0.273976 319.886230
v 23.063812 -1.142065 319.886230
v -21.762480 0.273976 -319.886230
v -23.371174 -1.142065 -319.886230
v -21.762480 0.273976 319.886230
v -23.371174 -1.142065 319.886230
v 0.000000 0.273976 319.886230
v 21.762480 0.273976 0.000000
v -21.762480 0.273976 0.000000
v 0.000000 0.273976 -319.886230
v 0.000000 0.273976 0.000000
v -10.881240 0.273976 319.886230
v 21.762480 0.273976 159.943115
v -21.762480 0.273976 -159.943115
v 10.881240 0.273976 -319.886230
v 10.881240 0.273976 319.886230
v 21.762480 0.273976 -159.943115
v -21.762480 0.273976 159.943115
v -10.881240 0.273976 -319.886230
v 0.000000 0.273976 159.943115
v 0.000000 0.273976 -159.943115
v 10.881240 0.273976 0.000000
v -10.881240 0.273976 0.000000
v -10.881240 0.273976 -159.943115
v 10.881240 0.273976 -159.943115
v 10.881240 0.273976 159.943115
v -10.881240 0.273976 159.943115
v -16.321859 0.273976 319.886230
v 21.762480 0.273976 239.914673
v -21.762480 0.273976 -239.914673
v 16.321859 0.273976 -319.886230
v 5.440620 0.273976 319.886230
v 21.762480 0.273976 -79.971558
v -21.762480 0.273976 79.971558
v -5.440620 0.273976 -319.886230
v 0.000000 0.273976 239.914673
v 0.000000 0.273976 -79.971558
v 16.321859 0.273976 0.000000
v -5.440620 0.273976 0.000000
v -5.440620 0.273976 319.886230
v 21.762480 0.273976 79.971558
v -21.762480 0.273976 -79.971558
v 5.440620 0.273976 -319.886230
v 16.321859 0.273976 319.886230
v 21.762480 0.273976 -239.914673
v -21.762480 0.273976 239.914673
v -16.321859 0.273976 -319.886230
v 0.000000 0.273976 79.971558
v 0.000000 0.273976 -239.914673
v 5.440620 0.273976 0.000000
v -16.321859 0.273976 0.000000
v -10.881240 0.273976 -79.971558
v -10.881240 0.273976 -239.914673
v -5.440620 0.273976 -159.943115
v -16.321859 0.273976 -159.943115
v 10.881240 0.273976 -79.971558
v 10.881240 0.273976 -239.914673
v 16.321859 0.273976 -159.943115
v 5.440620 0.273976 -159.943115
v 10.881240 0.273976 239.914673
v 10.881240 0.273976 79.971558
v 16.321859 0.273976 159.943115
v 5.440620 0.273976 159.943115
v -10.881240 0.273976 239.914673
v -10.881240 0.273976 79.971558
v -5.440620 0.273976 159.943115
v -16.321859 0.273976 159.943115
v -16.321859 0.273976 79.971558
v -5.440620 0.273976 79.971558
v -5.440620 0.273976 239.914673
v 5.440620 0.273976 79.971558
v 16.321859 0.273976 79.971558
v 16.321859 0.273976 239.914673
v 5.440620 0.273976 -239.914673
v 16.321859 0.273976 -239.914673
v 16.321859 0.273976 -79.971558
v -16.321859 0.273976 -239.914673
v -5.440620 0.273976 -239.914673
v -5.440620 0.273976 -79.971558
v -16.321859 0.273976 -79.971558
v 5.440620 0.273976 -79.971558
v 5.440620 0.273976 239.914673
v -16.321859 0.273976 239.914673
v -22.095812 29.789566 -319.886230
v -23.260670 29.241615 -319.886230
v -22.095812 29.789566 319.886230
v -23.260670 29.241615 319.886230
v -22.095812 29.789566 0.000000
v -22.095812 29.789566 -159.943115
v -22.095812 29.789566 159.943115
v -22.095812 29.789566 -239.914673
v -22.095812 29.789566 79.971558
v -22.095812 29.789566 -79.971558
v -22.095812 29.789566 239.914673
v 22.232483 29.437326 -319.886230
v 23.421831 28.889542 -319.886230
v 22.232483 29.437326 319.886230
v 23.421831 28.889542 319.886230
v 22.232483 29.437326 0.000000
v 22.232483 29.437326 159.943115
v 22.232483 29.437326 -159.943115
v 22.232483 29.437326 239.914673
v 22.232483 29.437326 -79.971558
v 22.232483 29.437326 79.971558
v 22.232483 29.437326 -239.914673
v 21.762480 0.273976 279.900452
v -21.762480 0.273976 -279.900452
v 21.762480 0.273976 -39.985779
v -21.762480 0.273976 39.985779
v 21.762480 0.273976 119.957336
v -21.762480 0.273976 -119.957336
v 21.762480 0.273976 -199.928894
v -21.762480 0.273976 199.928894
v 21.762480 0.273976 199.928894
v -21.762480 0.273976 -199.928894
v 21.762480 0.273976 -119.957336
v -21.762480 0.273976 119.957336
v 21.762480 0.273976 39.985779
v -21.762480 0.273976 -39.985779
v 21.762480 0.273976 -279.900452
v -21.762480 0.273976 279.900452
v -22.095812 29.789566 -279.900452
v -22.095812 29.789566 39.985779
v -22.095812 29.789566 -119.957336
v -22.095812 29.789566 199.928894
v -22.095812 29.789566 -199.928894
v -22.095812 29.789566 119.957336
v -22.095812 29.789566 -39.985779
v -22.095812 29.789566 279.900452
v -21.929146 15.031772 79.971558
v -21.929146 15.031771 159.943115
v -21.929146 15.031772 319.886230
v -21.929146 15.031772 0.000000
v -21.929146 15.031772 -79.971558
v -21.929146 15.031772 239.914673
v -21.929146 15.031771 -319.886230
v -21.929146 15.031772 -159.943115
v -21.929146 15.031771 -239.914673
v 22.232483 29.437326 279.900452
v 22.232483 29.437326 -39.985779
v 22.232483 29.437326 119.957336
v 22.232483 29.437326 -199.928894
v 22.232483 29.437326 199.928894
v 22.232483 29.437326 -119.957336
v 22.232483 29.437326 39.985779
v 22.232483 29.437326 -279.900452
v 21.997482 14.855652 0.000000
v 21.997482 14.855651 -79.971558
v 21.997482 14.855652 79.971558
v 21.997482 14.855652 319.886230
v 21.997482 14.855651 239.914673
v 21.997482 14.855652 -239.914673
v 21.997482 14.855651 -319.886230
v 21.997482 14.855652 159.943115
v 21.997482 14.855652 -159.943115
v 21.997482 14.855652 -119.957336
v 21.997482 14.855652 199.928894
v 21.997482 14.855652 -199.928894
v 21.997482 14.855652 119.957336
v 21.997482 14.855652 -279.900452
v 21.997482 14.855652 279.900452
v 21.997482 14.855652 39.985779
v -21.929146 15.031772 -199.928894
v -21.929146 15.031772 199.928894
v -21.929146 15.031772 -279.900452
v -21.929146 15.031772 -119.957336
v -21.929146 15.031772 279.900452
v -21.929146 15.031772 -39.985779
v -21.929146 15.031772 39.985779
v 21.997482 14.855652 -39.985779
v -21.929146 15.031772 119.957336
vt 0.875000 0.734375
vt 0.875000 0.750000
vt 0.843750 0.750000
vt 0.625000 0.937500
vt 0.625000 0.968750
vt 0.375000 1.000000
vt 0.875000 0.656250
vt 0.875000 0.671875
vt 0.875000 0.671875
vt 0.375000 0.500000
vt 0.125000 0.750000
vt 0.125000 0.500000
vt 0.625000 0.625000
vt 0.625000 0.609375
vt 0.625000 0.609375
vt 0.625000 0.437500
vt 0.625000 0.468750
vt 0.750000 0.718750
vt 0.718750 0.750000
vt 0.718750 0.718750
vt 0.750000 0.593750
vt 0.718750 0.625000
vt 0.718750 0.593750
vt 0.875000 0.609375
vt 0.875000 0.625000
vt 0.843750 0.625000
vt 0.812500 0.593750
vt 0.781250 0.625000
vt 0.781250 0.593750
vt 0.812500 0.531250
vt 0.781250 0.562500
vt 0.781250 0.531250
vt 0.875000 0.546875
vt 0.875000 0.562500
vt 0.843750 0.562500
vt 0.687500 0.593750
vt 0.656250 0.625000
vt 0.656250 0.593750
vt 0.687500 0.531250
vt 0.656250 0.562500
vt 0.656250 0.531250
vt 0.750000 0.531250
vt 0.718750 0.562500
vt 0.718750 0.531250
vt 0.687500 0.718750
vt 0.656250 0.750000
vt 0.656250 0.718750
vt 0.687500 0.656250
vt 0.656250 0.687500
vt 0.656250 0.656250
vt 0.750000 0.656250
vt 0.718750 0.687500
vt 0.718750 0.656250
vt 0.812500 0.718750
vt 0.781250 0.750000
vt 0.781250 0.718750
vt 0.812500 0.656250
vt 0.781250 0.687500
vt 0.781250 0.656250
vt 0.875000 0.671875
vt 0.875000 0.687500
vt 0.843750 0.687500
vt 0.843750 0.656250
vt 0.812500 0.687500
vt 0.812500 0.625000
vt 0.875000 0.640625
vt 0.875000 0.656250
vt 0.750000 0.687500
vt 0.750000 0.625000
vt 0.750000 0.750000
vt 0.687500 0.687500
vt 0.687500 0.625000
vt 0.625000 0.687500
vt 0.625000 0.671875
vt 0.625000 0.656250
vt 0.625000 0.640625
vt 0.625000 0.750000
vt 0.625000 0.734375
vt 0.625000 0.718750
vt 0.625000 0.703125
vt 0.687500 0.562500
vt 0.718750 0.500000
vt 0.687500 0.500000
vt 0.750000 0.500000
vt 0.625000 0.562500
vt 0.625000 0.546875
vt 0.625000 0.531250
vt 0.625000 0.515625
vt 0.656250 0.500000
vt 0.625000 0.625000
vt 0.625000 0.609375
vt 0.625000 0.593750
vt 0.625000 0.578125
vt 0.843750 0.531250
vt 0.812500 0.562500
vt 0.843750 0.500000
vt 0.812500 0.500000
vt 0.875000 0.515625
vt 0.875000 0.531250
vt 0.750000 0.562500
vt 0.781250 0.500000
vt 0.843750 0.593750
vt 0.875000 0.578125
vt 0.875000 0.593750
vt 0.687500 0.750000
vt 0.843750 0.718750
vt 0.812500 0.750000
vt 0.875000 0.703125
vt 0.875000 0.718750
vt 0.625000 0.125000
vt 0.625000 0.140625
vt 0.375000 0.250000
vt 0.625000 1.000000
vt 0.625000 1.000000
vt 0.375000 1.000000
vt 0.125000 0.500000
vt 0.875000 0.625000
vt 0.875000 0.640625
vt 0.875000 0.640625
vt 0.875000 0.593750
vt 0.875000 0.609375
vt 0.875000 0.609375
vt 0.875000 0.718750
vt 0.875000 0.734375
vt 0.875000 0.734375
vt 0.625000 0.250000
vt 0.625000 0.250000
vt 0.875000 0.562500
vt 0.875000 0.578125
vt 0.875000 0.578125
vt 0.875000 0.500000
vt 0.875000 0.515625
vt 0.875000 0.515625
vt 0.875000 0.687500
vt 0.875000 0.703125
vt 0.875000 0.703125
vt 0.875000 0.531250
vt 0.875000 0.546875
vt 0.875000 0.546875
vt 0.625000 0.625000
vt 0.625000 0.640625
vt 0.375000 0.750000
vt 0.625000 0.656250
vt 0.625000 0.640625
vt 0.625000 0.750000
vt 0.625000 0.734375
vt 0.625000 0.734375
vt 0.625000 0.531250
vt 0.625000 0.515625
vt 0.625000 0.515625
vt 0.625000 0.687500
vt 0.625000 0.671875
vt 0.625000 0.671875
vt 0.625000 0.750000
vt 0.375000 0.750000
vt 0.625000 0.562500
vt 0.625000 0.546875
vt 0.625000 0.546875
vt 0.625000 0.718750
vt 0.625000 0.703125
vt 0.625000 0.703125
vt 0.625000 0.593750
vt 0.625000 0.578125
vt 0.625000 0.578125
vt 0.625000 0.500000
vt 0.625000 0.500000
vt 0.375000 0.500000
vt 0.625000 0.562500
vt 0.625000 0.687500
vt 0.625000 0.531250
vt 0.625000 0.656250
vt 0.625000 0.500000
vt 0.625000 0.718750
vt 0.875000 0.562500
vt 0.875000 0.718750
vt 0.875000 0.531250
vt 0.875000 0.500000
vt 0.875000 0.593750
vt 0.875000 0.750000
vt 0.875000 0.750000
vt 0.875000 0.625000
vt 0.875000 0.656250
vt 0.625000 0.593750
vt 0.875000 0.687500
vt 0.625000 0.875000
vt 0.625000 0.781250
vt 0.625000 0.812500
vt 0.625000 0.843750
vt 0.625000 1.000000
vt 0.625000 0.906250
vt 0.375000 0.250000
vt 0.625000 0.375000
vt 0.625000 0.250000
vt 0.625000 0.281250
vt 0.625000 0.312500
vt 0.625000 0.343750
vt 0.625000 0.406250
vt 0.375000 0.000000
vt 0.625000 0.000000
vt 0.625000 0.015625
vt 0.625000 0.031250
vt 0.625000 0.046875
vt 0.625000 0.062500
vt 0.625000 0.234375
vt 0.625000 0.187500
vt 0.625000 0.203125
vt 0.625000 0.218750
vt 0.625000 0.078125
vt 0.625000 0.093750
vt 0.625000 0.109375
vt 0.625000 0.156250
vt 0.625000 0.171875
vt 0.125000 0.750000
vt 0.875000 0.500000
vn 0.0000 1.0000 0.0000
vn 0.0000 0.0000 1.0000
vn 0.9999 0.0113 0.0000
vn 0.0000 -1.0000 0.0000
vn -0.9999 0.0161 0.0000
vn 0.0000 0.0000 -1.0000
vn -0.4257 0.9049 0.0000
vn -1.0000 0.0036 0.0000
vn 0.4183 0.9083 0.0000
vn 0.9999 -0.0119 0.0000
usemtl Material
s off
f 123/1/1 7/2/1 30/3/1
f 14/4/2 30/5/2 8/6/2
f 132/7/3 129/8/3 173/9/3
f 2/10/4 8/11/4 6/12/4
f 149/13/5 142/14/5 172/15/5
f 17/16/6 33/17/6 2/10/6
f 38/18/1 34/19/1 84/20/1
f 39/21/1 52/22/1 83/23/1
f 121/24/1 11/25/1 53/26/1
f 54/27/1 41/28/1 81/29/1
f 55/30/1 56/31/1 80/32/1
f 117/33/1 16/34/1 57/35/1
f 58/36/1 40/37/1 78/38/1
f 59/39/1 60/40/1 77/41/1
f 51/42/1 61/43/1 76/44/1
f 62/45/1 46/46/1 75/47/1
f 63/48/1 64/49/1 74/50/1
f 50/51/1 65/52/1 73/53/1
f 66/54/1 42/55/1 72/56/1
f 67/57/1 68/58/1 71/59/1
f 119/60/1 20/61/1 69/62/1
f 70/63/1 29/64/1 67/57/1
f 53/26/1 67/57/1 25/65/1
f 111/66/1 36/67/1 70/63/1
f 71/59/1 22/68/1 50/51/1
f 41/28/1 50/51/1 13/69/1
f 25/65/1 71/59/1 41/28/1
f 72/56/1 9/70/1 38/18/1
f 68/58/1 38/18/1 22/68/1
f 29/64/1 72/56/1 68/58/1
f 73/53/1 28/71/1 63/48/1
f 52/22/1 63/48/1 24/72/1
f 13/69/1 73/53/1 52/22/1
f 64/49/1 15/73/1 112/74/1
f 74/50/1 43/75/1 120/76/1
f 24/72/1 74/50/1 40/37/1
f 46/46/1 3/77/1 108/78/1
f 75/47/1 31/79/1 116/80/1
f 28/71/1 75/47/1 64/49/1
f 76/44/1 27/81/1 59/39/1
f 45/82/1 59/39/1 17/83/1
f 12/84/1 76/44/1 45/82/1
f 60/40/1 19/85/1 114/86/1
f 77/41/1 47/87/1 122/88/1
f 17/83/1 77/41/1 33/89/1
f 40/37/1 10/90/1 110/91/1
f 78/38/1 35/92/1 118/93/1
f 27/81/1 78/38/1 60/40/1
f 79/94/1 26/95/1 55/30/1
f 49/96/1 55/30/1 21/97/1
f 109/98/1 32/99/1 79/94/1
f 80/32/1 23/100/1 51/42/1
f 37/101/1 51/42/1 12/84/1
f 21/97/1 80/32/1 37/101/1
f 81/29/1 13/69/1 39/21/1
f 56/31/1 39/21/1 23/100/1
f 26/95/1 81/29/1 56/31/1
f 82/102/1 25/65/1 54/27/1
f 57/35/1 54/27/1 26/95/1
f 113/103/1 44/104/1 82/102/1
f 83/23/1 24/72/1 58/36/1
f 61/43/1 58/36/1 27/81/1
f 23/100/1 83/23/1 61/43/1
f 84/20/1 18/105/1 62/45/1
f 65/52/1 62/45/1 28/71/1
f 22/68/1 84/20/1 65/52/1
f 85/106/1 14/107/1 66/54/1
f 69/62/1 66/54/1 29/64/1
f 115/108/1 48/109/1 85/106/1
f 90/110/7 130/111/7 87/112/7
f 134/113/2 88/114/2 89/115/2
f 8/11/8 87/116/8 6/12/8
f 135/117/3 125/118/3 171/119/3
f 136/120/3 130/121/3 170/122/3
f 137/123/3 131/124/3 169/125/3
f 87/112/6 86/126/6 138/127/6
f 139/128/3 126/129/3 168/130/3
f 138/131/3 124/132/3 167/133/3
f 133/134/3 127/135/3 166/136/3
f 140/137/3 128/138/3 165/139/3
f 101/140/9 147/141/9 100/142/9
f 151/143/5 147/141/5 164/144/5
f 152/145/5 141/146/5 163/147/5
f 154/148/5 148/149/5 162/150/5
f 156/151/5 143/152/5 161/153/5
f 100/142/2 99/154/2 152/145/2
f 2/10/10 100/142/10 4/155/10
f 157/156/5 144/157/5 160/158/5
f 153/159/5 145/160/5 159/161/5
f 150/162/5 146/163/5 158/164/5
f 155/165/6 97/166/6 98/167/6
f 158/164/5 103/168/5 157/156/5
f 118/93/5 157/156/5 19/85/5
f 35/92/5 158/164/5 118/93/5
f 159/161/5 102/169/5 156/151/5
f 116/80/5 156/151/5 15/73/5
f 31/79/5 159/161/5 116/80/5
f 160/158/5 107/170/5 154/148/5
f 114/86/5 154/148/5 47/87/5
f 19/85/5 160/158/5 114/86/5
f 161/153/5 106/171/5 151/143/5
f 112/74/5 151/143/5 43/75/5
f 15/73/5 161/153/5 112/74/5
f 162/150/5 97/166/5 155/165/5
f 122/88/5 155/165/5 1/172/5
f 47/87/5 162/150/5 122/88/5
f 163/147/5 104/173/5 153/159/5
f 108/78/5 153/159/5 31/79/5
f 3/77/5 163/147/5 108/78/5
f 164/144/5 101/140/5 149/13/5
f 120/76/5 149/13/5 10/90/5
f 43/75/5 164/144/5 120/76/5
f 165/139/3 91/174/3 139/128/3
f 117/33/3 139/128/3 16/34/3
f 32/99/3 165/139/3 117/33/3
f 166/136/3 96/175/3 137/123/3
f 115/108/3 137/123/3 48/109/3
f 20/61/3 166/136/3 115/108/3
f 167/133/3 93/176/3 140/137/3
f 109/98/3 140/137/3 32/99/3
f 5/177/3 167/133/3 109/98/3
f 168/130/3 95/178/3 136/120/3
f 113/103/3 136/120/3 44/104/3
f 16/34/3 168/130/3 113/103/3
f 169/125/3 88/179/3 134/180/3
f 123/1/3 134/180/3 7/2/3
f 48/109/3 169/125/3 123/1/3
f 170/122/3 90/181/3 135/117/3
f 121/24/3 135/117/3 11/25/3
f 44/104/3 170/122/3 121/24/3
f 171/119/3 94/182/3 132/7/3
f 111/66/3 132/7/3 36/67/3
f 11/25/3 171/119/3 111/66/3
f 172/15/5 105/183/5 150/162/5
f 110/91/5 150/162/5 35/92/5
f 10/90/5 172/15/5 110/91/5
f 173/9/3 92/184/3 133/134/3
f 119/60/3 133/134/3 20/61/3
f 36/67/3 173/9/3 119/60/3
f 30/3/1 85/106/1 123/1/1
f 85/106/1 48/109/1 123/1/1
f 8/6/2 4/155/2 9/185/2
f 4/155/2 3/77/2 46/186/2
f 46/186/2 18/187/2 4/155/2
f 18/187/2 34/188/2 4/155/2
f 4/155/2 34/188/2 9/185/2
f 30/5/2 7/189/2 8/6/2
f 9/185/2 42/190/2 8/6/2
f 42/190/2 14/4/2 8/6/2
f 132/7/3 94/182/3 129/8/3
f 2/10/4 4/155/4 8/11/4
f 149/13/5 101/140/5 142/14/5
f 2/10/6 6/191/6 12/192/6
f 6/191/6 5/193/6 49/194/6
f 49/194/6 21/195/6 6/191/6
f 21/195/6 37/196/6 6/191/6
f 6/191/6 37/196/6 12/192/6
f 33/17/6 1/172/6 2/10/6
f 12/192/6 45/197/6 2/10/6
f 45/197/6 17/16/6 2/10/6
f 38/18/1 9/70/1 34/19/1
f 39/21/1 13/69/1 52/22/1
f 53/26/1 82/102/1 121/24/1
f 82/102/1 44/104/1 121/24/1
f 54/27/1 25/65/1 41/28/1
f 55/30/1 26/95/1 56/31/1
f 57/35/1 79/94/1 117/33/1
f 79/94/1 32/99/1 117/33/1
f 58/36/1 24/72/1 40/37/1
f 59/39/1 27/81/1 60/40/1
f 51/42/1 23/100/1 61/43/1
f 62/45/1 18/105/1 46/46/1
f 63/48/1 28/71/1 64/49/1
f 50/51/1 22/68/1 65/52/1
f 66/54/1 14/107/1 42/55/1
f 67/57/1 29/64/1 68/58/1
f 69/62/1 70/63/1 119/60/1
f 70/63/1 36/67/1 119/60/1
f 70/63/1 69/62/1 29/64/1
f 53/26/1 70/63/1 67/57/1
f 70/63/1 53/26/1 111/66/1
f 53/26/1 11/25/1 111/66/1
f 71/59/1 68/58/1 22/68/1
f 41/28/1 71/59/1 50/51/1
f 25/65/1 67/57/1 71/59/1
f 72/56/1 42/55/1 9/70/1
f 68/58/1 72/56/1 38/18/1
f 29/64/1 66/54/1 72/56/1
f 73/53/1 65/52/1 28/71/1
f 52/22/1 73/53/1 63/48/1
f 13/69/1 50/51/1 73/53/1
f 112/74/1 43/75/1 74/50/1
f 74/50/1 64/49/1 112/74/1
f 120/76/1 10/90/1 40/37/1
f 40/37/1 74/50/1 120/76/1
f 24/72/1 63/48/1 74/50/1
f 108/78/1 31/79/1 75/47/1
f 75/47/1 46/46/1 108/78/1
f 116/80/1 15/73/1 64/49/1
f 64/49/1 75/47/1 116/80/1
f 28/71/1 62/45/1 75/47/1
f 76/44/1 61/43/1 27/81/1
f 45/82/1 76/44/1 59/39/1
f 12/84/1 51/42/1 76/44/1
f 114/86/1 47/87/1 77/41/1
f 77/41/1 60/40/1 114/86/1
f 122/88/1 1/172/1 33/89/1
f 33/89/1 77/41/1 122/88/1
f 17/83/1 59/39/1 77/41/1
f 110/91/1 35/92/1 78/38/1
f 78/38/1 40/37/1 110/91/1
f 118/93/1 19/85/1 60/40/1
f 60/40/1 78/38/1 118/93/1
f 27/81/1 58/36/1 78/38/1
f 79/94/1 57/35/1 26/95/1
f 49/96/1 79/94/1 55/30/1
f 79/94/1 49/96/1 109/98/1
f 49/96/1 5/177/1 109/98/1
f 80/32/1 56/31/1 23/100/1
f 37/101/1 80/32/1 51/42/1
f 21/97/1 55/30/1 80/32/1
f 81/29/1 41/28/1 13/69/1
f 56/31/1 81/29/1 39/21/1
f 26/95/1 54/27/1 81/29/1
f 82/102/1 53/26/1 25/65/1
f 57/35/1 82/102/1 54/27/1
f 82/102/1 57/35/1 113/103/1
f 57/35/1 16/34/1 113/103/1
f 83/23/1 52/22/1 24/72/1
f 61/43/1 83/23/1 58/36/1
f 23/100/1 39/21/1 83/23/1
f 84/20/1 34/19/1 18/105/1
f 65/52/1 84/20/1 62/45/1
f 22/68/1 38/18/1 84/20/1
f 85/106/1 30/3/1 14/107/1
f 69/62/1 85/106/1 66/54/1
f 85/106/1 69/62/1 115/108/1
f 69/62/1 20/61/1 115/108/1
f 87/112/7 89/198/7 90/110/7
f 89/198/7 88/199/7 131/200/7
f 131/200/7 96/201/7 89/198/7
f 96/201/7 127/202/7 89/198/7
f 89/198/7 127/202/7 92/203/7
f 124/204/7 86/126/7 87/112/7
f 91/205/7 128/206/7 87/112/7
f 128/206/7 93/207/7 87/112/7
f 93/207/7 124/204/7 87/112/7
f 92/203/7 129/208/7 89/198/7
f 129/208/7 94/209/7 89/198/7
f 89/198/7 94/209/7 125/210/7
f 130/111/7 95/211/7 87/112/7
f 95/211/7 126/212/7 87/112/7
f 126/212/7 91/205/7 87/112/7
f 125/210/7 90/110/7 89/198/7
f 89/115/2 8/6/2 134/113/2
f 8/6/2 7/189/2 134/113/2
f 8/11/8 89/213/8 87/116/8
f 135/117/3 90/181/3 125/118/3
f 136/120/3 95/178/3 130/121/3
f 137/123/3 96/175/3 131/124/3
f 138/127/6 5/193/6 6/191/6
f 6/191/6 87/112/6 138/127/6
f 139/128/3 91/174/3 126/129/3
f 138/131/3 86/214/3 124/132/3
f 133/134/3 92/184/3 127/135/3
f 140/137/3 93/176/3 128/138/3
f 100/142/9 98/167/9 101/140/9
f 98/167/9 97/166/9 148/149/9
f 148/149/9 107/170/9 98/167/9
f 107/170/9 144/157/9 98/167/9
f 98/167/9 144/157/9 103/168/9
f 141/146/9 99/154/9 100/142/9
f 102/169/9 145/160/9 100/142/9
f 145/160/9 104/173/9 100/142/9
f 104/173/9 141/146/9 100/142/9
f 103/168/9 146/163/9 98/167/9
f 146/163/9 105/183/9 98/167/9
f 98/167/9 105/183/9 142/14/9
f 147/141/9 106/171/9 100/142/9
f 106/171/9 143/152/9 100/142/9
f 143/152/9 102/169/9 100/142/9
f 142/14/9 101/140/9 98/167/9
f 151/143/5 106/171/5 147/141/5
f 152/145/5 99/154/5 141/146/5
f 154/148/5 107/170/5 148/149/5
f 156/151/5 102/169/5 143/152/5
f 152/145/2 3/77/2 4/155/2
f 4/155/2 100/142/2 152/145/2
f 2/10/10 98/167/10 100/142/10
f 157/156/5 103/168/5 144/157/5
f 153/159/5 104/173/5 145/160/5
f 150/162/5 105/183/5 146/163/5
f 98/167/6 2/10/6 155/165/6
f 2/10/6 1/172/6 155/165/6
f 158/164/5 146/163/5 103/168/5
f 118/93/5 158/164/5 157/156/5
f 35/92/5 150/162/5 158/164/5
f 159/161/5 145/160/5 102/169/5
f 116/80/5 159/161/5 156/151/5
f 31/79/5 153/159/5 159/161/5
f 160/158/5 144/157/5 107/170/5
f 114/86/5 160/158/5 154/148/5
f 19/85/5 157/156/5 160/158/5
f 161/153/5 143/152/5 106/171/5
f 112/74/5 161/153/5 151/143/5
f 15/73/5 156/151/5 161/153/5
f 162/150/5 148/149/5 97/166/5
f 122/88/5 162/150/5 155/165/5
f 47/87/5 154/148/5 162/150/5
f 163/147/5 141/146/5 104/173/5
f 108/78/5 163/147/5 153/159/5
f 3/77/5 152/145/5 163/147/5
f 164/144/5 147/141/5 101/140/5
f 120/76/5 164/144/5 149/13/5
f 43/75/5 151/143/5 164/144/5
f 165/139/3 128/138/3 91/174/3
f 117/33/3 165/139/3 139/128/3
f 32/99/3 140/137/3 165/139/3
f 166/136/3 127/135/3 96/175/3
f 115/108/3 166/136/3 137/123/3
f 20/61/3 133/134/3 166/136/3
f 167/133/3 124/132/3 93/176/3
f 109/98/3 167/133/3 140/137/3
f 5/177/3 138/131/3 167/133/3
f 168/130/3 126/129/3 95/178/3
f 113/103/3 168/130/3 136/120/3
f 16/34/3 139/128/3 168/130/3
f 169/125/3 131/124/3 88/179/3
f 123/1/3 169/125/3 134/180/3
f 48/109/3 137/123/3 169/125/3
f 170/122/3 130/121/3 90/181/3
f 121/24/3 170/122/3 135/117/3
f 44/104/3 136/120/3 170/122/3
f 171/119/3 125/118/3 94/182/3
f 111/66/3 171/119/3 132/7/3
f 11/25/3 135/117/3 171/119/3
f 172/15/5 142/14/5 105/183/5
f 110/91/5 172/15/5 150/162/5
f 10/90/5 149/13/5 172/15/5
f 173/9/3 129/8/3 92/184/3
f 119/60/3 173/9/3 133/134/3
f 36/67/3 132/7/3 173/9/3
